<?xml version="1.0" encoding="UTF-8" standalone="no"?>
<!DOCTYPE svg PUBLIC "-//W3C//DTD SVG 1.1//EN" "http://www.w3.org/Graphics/SVG/1.1/DTD/svg11.dtd">
<svg width="100%" height="100%" viewBox="0 0 256 256" version="1.1" xmlns="http://www.w3.org/2000/svg" xmlns:xlink="http://www.w3.org/1999/xlink" xml:space="preserve" xmlns:serif="http://www.serif.com/" style="fill-rule:evenodd;clip-rule:evenodd;stroke-linejoin:round;stroke-miterlimit:2;">
    <g transform="matrix(1.00189,0,0,1.00447,0.139598,-0.320785)">
        <rect x="-0.139" y="0.319" width="255.517" height="254.862" style="fill:white;"/>
    </g>
    <g id="Five-Col-1" serif:id="Five Col 1" transform="matrix(0.181497,0,0,1.06537,58.097,-14.5398)">
        <rect x="30.291" y="30.527" width="204.169" height="206.501" style="fill:rgb(0,173,185);"/>
    </g>
    <g id="Five-Col-2" serif:id="Five Col 2" transform="matrix(0.181497,0,0,1.06537,12.4372,-14.5398)">
        <rect x="30.291" y="30.527" width="204.169" height="206.501" style="fill:rgb(0,173,185);"/>
    </g>
    <g id="Five-Col-3" serif:id="Five Col 3" transform="matrix(0.181497,0,0,1.06537,103.757,-14.5398)">
        <rect x="30.291" y="30.527" width="204.169" height="206.501" style="fill:rgb(0,173,185);"/>
    </g>
    <g id="Five-Col-4" serif:id="Five Col 4" transform="matrix(0.181497,0,0,1.06537,195.076,-14.5398)">
        <rect x="30.291" y="30.527" width="204.169" height="206.501" style="fill:rgb(0,173,185);"/>
    </g>
    <g id="Five-Col-5" serif:id="Five Col 5" transform="matrix(0.181497,0,0,1.06537,149.417,-14.5398)">
        <rect x="30.291" y="30.527" width="204.169" height="206.501" style="fill:rgb(0,173,185);"/>
    </g>
</svg>
